<svg xmlns="http://www.w3.org/2000/svg" xmlns:xlink="http://www.w3.org/1999/xlink" width="500" zoomAndPan="magnify" viewBox="0 0 375 374.999991" height="500" preserveAspectRatio="xMidYMid meet" version="1.0"><defs><g/></defs><g fill="#9b4de0" fill-opacity="1"><g transform="translate(45.38672, 226.899652)"><g><path d="M 6.421875 0 L 61.472656 0 L 61.472656 -15.046875 C 55.230469 -8.625 35.78125 -1.46875 19.726562 -1.375 L 19.726562 -91.746094 L 6.421875 -91.746094 Z M 6.421875 0 "/></g></g></g><g fill="#9b4de0" fill-opacity="1"><g transform="translate(110.434648, 226.899652)"><g><path d="M 21.835938 0 C 20.828125 -4.21875 20.183594 -18.074219 20.644531 -33.304688 L 51.285156 -33.304688 C 54.222656 -23.210938 57.34375 -12.660156 61.195312 0 L 75.234375 0 C 65.78125 -31.285156 60.09375 -49.820312 50.828125 -80.371094 C 48.902344 -86.703125 45.230469 -92.664062 38.535156 -92.664062 C 31.835938 -92.664062 28.167969 -86.703125 26.238281 -80.371094 C 16.972656 -49.820312 11.375 -31.285156 1.835938 0 Z M 20.734375 -34.679688 C 21.5625 -57.894531 24.863281 -83.765625 33.121094 -83.765625 C 35.140625 -83.765625 36.148438 -82.390625 36.789062 -80.371094 C 42.386719 -62.753906 46.515625 -49.085938 50.828125 -34.679688 Z M 20.734375 -34.679688 "/></g></g></g><g fill="#9b4de0" fill-opacity="1"><g transform="translate(187.501308, 226.899652)"><g><path d="M 6.421875 0 L 61.472656 0 L 61.472656 -15.046875 C 55.230469 -8.625 35.78125 -1.46875 19.726562 -1.375 L 19.726562 -91.746094 L 6.421875 -91.746094 Z M 6.421875 0 "/></g></g></g><g fill="#9b4de0" fill-opacity="1"><g transform="translate(252.549236, 226.899652)"><g><path d="M 21.835938 0 C 20.828125 -4.21875 20.183594 -18.074219 20.644531 -33.304688 L 51.285156 -33.304688 C 54.222656 -23.210938 57.34375 -12.660156 61.195312 0 L 75.234375 0 C 65.78125 -31.285156 60.09375 -49.820312 50.828125 -80.371094 C 48.902344 -86.703125 45.230469 -92.664062 38.535156 -92.664062 C 31.835938 -92.664062 28.167969 -86.703125 26.238281 -80.371094 C 16.972656 -49.820312 11.375 -31.285156 1.835938 0 Z M 20.734375 -34.679688 C 21.5625 -57.894531 24.863281 -83.765625 33.121094 -83.765625 C 35.140625 -83.765625 36.148438 -82.390625 36.789062 -80.371094 C 42.386719 -62.753906 46.515625 -49.085938 50.828125 -34.679688 Z M 20.734375 -34.679688 "/></g></g></g></svg>